<?xml version="1.0" encoding="utf-8"?>
<!-- Generator: Adobe Illustrator 27.7.0, SVG Export Plug-In . SVG Version: 6.00 Build 0)  -->
<svg version="1.1" baseProfile="tiny" id="Capa_1" xmlns="http://www.w3.org/2000/svg" xmlns:xlink="http://www.w3.org/1999/xlink"
	 x="0px" y="0px" viewBox="0 0 250 128.4" overflow="visible" xml:space="preserve">
<g>
	<path d="M236.2,39.2c-6.7-7.1-15.1-11.8-24.4-13.5l1.8-10.3H208l-0.9,1.7l-0.3-1.7h-3.8h-1.5H189l0,0h-45.1l-19.1,23.9L114,25.9
		H64.2c-3.6-0.7-7.5-1.1-11.5-1.1c-0.8,0-1.5,0-2.3,0C22.8,25.9,1.7,44.1,0.1,68.4c-0.8,12.9,3.8,25.8,12.6,35.2
		c8.7,9.2,20.3,14.3,32.7,14.3c7.1,0,12.5,0,16.4,0l-8.4,10.4h52.9l18.7-23.2l11.3,13.8h53l-1.2-1.5c2.7,0.4,5.4,0.5,8.3,0.5
		c0.8,0,1.5,0,2.3,0c27.6-0.9,48.7-19.2,50.3-43.5C249.7,61.5,245.1,48.7,236.2,39.2z"/>
	<g>
		<path d="M241,115.2L241,115.2l1.9-4.9h1.4v6.4h-0.9v-5.3h0l-2.1,5.3h-0.6l-2.1-5.3h0v5.3h-0.9v-6.4h1.4L241,115.2z"/>
		<path d="M246.4,116.7h-0.9v-6.4h2c1.2,0,2.3,0.5,2.3,1.8c0,0.9-0.6,1.5-1.5,1.7l1.8,2.9h-1.1l-1.6-2.8h-1V116.7z M246.4,113.1h1
			c0.8,0,1.5-0.3,1.5-1c0-0.8-0.7-1-1.4-1h-1.1V113.1z"/>
	</g>
	<g>
		<path d="M28.6,21h-6.6l3.6-20.5h7.6c5.2,0,8.2,2.3,8.2,6.2c0,5.3-3.6,7.6-9.6,7.6h-2L28.6,21z M34.7,7.4c0-1.2-0.9-1.6-2.4-1.6h-1
			l-0.6,3.5h1.1C33.6,9.3,34.7,8.7,34.7,7.4z"/>
		<path d="M41.1,12.2C41.1,5.4,46.1,0,53.6,0c6.6,0,10.2,3.8,10.2,9.3c0,6.8-4.9,12.2-12.5,12.2C44.7,21.5,41.1,17.7,41.1,12.2z
			 M53,6.1c-3,0-4.9,2.8-4.9,5.6c0,2.1,1.3,3.7,3.8,3.7c3,0,4.9-2.7,4.9-5.6C56.8,7.7,55.4,6.1,53,6.1z"/>
		<path d="M75.1,21l-4-10.1h-0.1L69.4,21h-6.5l3.6-20.5H73l4.1,10.7h0.1L79,0.5h6.5L81.8,21H75.1z"/>
		<path d="M97.1,6.2L94.5,21h-6.7l2.6-14.8h-5.2l1-5.6h16.9l-1,5.6H97.1z"/>
		<path d="M100.3,21l3.6-20.5h13.4l-1,5.6h-7.1l-0.3,2h6.8l-0.9,5.2h-6.8l-0.4,2.1h7.9l-1,5.6H100.3z"/>
	</g>
	<path fill="#FFFFFF" d="M197.8,18.6l-0.3,1.6h2.9l-0.3,1.5h-2.9l-0.5,3h-1.8l1.4-7.7h4.9l-0.3,1.5H197.8z"/>
	<path fill="#FFFFFF" d="M208.6,24.7l1-5.5h0l-3,5.5h-1.3l-1-5.5h0l-0.9,5.5h-1.7l1.4-7.7h2.5l0.9,5h0l2.6-5h2.7l-1.4,7.7H208.6z"/>
	<g>
		<path fill="#FFFFFF" d="M52.2,86.2c-14.4,0-13.8-4.7-13.8-4.7s22.3,0,28.6,0c7.5,0,20.8-7.8,20.8-22.9c0-15.1-15.2-26.4-37.1-25.6
			C27.7,33.7,9.4,48.2,8.1,68.9c-1.4,21.8,15.5,41,37.3,41c19.5,0,25.7-0.1,25.7-0.1l18.2-23.6C89.3,86.2,60.3,86.2,52.2,86.2z
			 M41.7,57.5c7.6-3.2,13.1-2,17.1,0.9c3.8,2.8,1.6,6.8-1,6.8c-2.6,0-23.5,0-23.5,0S35.7,60,41.7,57.5z"/>
		<polygon fill="#FFFFFF" points="180.6,23.4 147.7,23.4 124.8,52.1 110.2,34 77.3,34 108.6,72.3 70.2,120.3 102.5,120.3 125,92.4 
			140.1,110.9 172.4,110.9 141.2,72.3 		"/>
		<path fill="#FFFFFF" d="M196.8,56.7c14.4,0,13.8,4.7,13.8,4.7s-22.3,0-28.6,0c-7.5,0-20.8,7.8-20.8,22.9
			c0,15.1,15.2,26.4,37.1,25.6c22.9-0.8,41.2-15.3,42.5-35.9c1.4-21.8-15.5-41-37.4-41C184,33,181.3,33,181.3,33l-18.2,23.6
			C163.2,56.7,188.6,56.7,196.8,56.7z M207.2,85.4c-7.6,3.2-13.1,2-17.1-0.9c-3.8-2.8-1.6-6.8,1-6.8s23.5,0,23.5,0
			S213.2,82.9,207.2,85.4z"/>
	</g>
</g>
</svg>
